<svg id="Layer_1" data-name="Layer 1" xmlns="http://www.w3.org/2000/svg" viewBox="0 0 303.41 122.29"><defs><style>.cls-1{fill:#89261b;}.cls-2,.cls-7{fill:none;stroke-miterlimit:10;}.cls-2{stroke:#231f20;}.cls-3{fill:#e4e87a;}.cls-4{fill:#a9d37a;}.cls-5{fill:#8cb83f;}.cls-6{fill:#25a049;}.cls-7{stroke:#fff;stroke-width:2px;}.cls-8{fill:#288a42;}</style></defs><path class="cls-1" d="M212,44.43a5.56,5.56,0,0,0-1.16-1,10.24,10.24,0,0,0-1.62-.84,11,11,0,0,0-2-.62,10.62,10.62,0,0,0-2.21-.23,7,7,0,0,0-4.36,1.11,3.69,3.69,0,0,0-1.4,3,3.1,3.1,0,0,0,.72,2.16,5.31,5.31,0,0,0,2.21,1.29c1,.33,2.26.68,3.8,1a25.56,25.56,0,0,1,4.61,1.4,7.2,7.2,0,0,1,3,2.2,6,6,0,0,1,1,3.68,6.78,6.78,0,0,1-.7,3.18,6.07,6.07,0,0,1-2,2.22,8.85,8.85,0,0,1-3,1.3,15.74,15.74,0,0,1-3.67.41,17.22,17.22,0,0,1-3.8-.42,16.16,16.16,0,0,1-3.51-1.2,15.3,15.3,0,0,1-3.09-2l1.55-2.74A8,8,0,0,0,198,59.68a14.06,14.06,0,0,0,2.09,1.1,15.12,15.12,0,0,0,2.54.81,13,13,0,0,0,2.8.3,7.73,7.73,0,0,0,4.25-1A3.23,3.23,0,0,0,211.18,58a3.14,3.14,0,0,0-.84-2.29,6.37,6.37,0,0,0-2.5-1.44c-1.11-.38-2.45-.77-4-1.15a27.11,27.11,0,0,1-4.35-1.42,6.14,6.14,0,0,1-2.65-2,5.57,5.57,0,0,1-.88-3.27,7,7,0,0,1,1.19-4.13,7.36,7.36,0,0,1,3.27-2.55,12.41,12.41,0,0,1,4.72-.86,13.69,13.69,0,0,1,3.22.36,13,13,0,0,1,2.79,1,12,12,0,0,1,2.38,1.55Z" transform="translate(-13.71 -7.93)"/><path class="cls-1" d="M226.16,39.07h2.74l10.44,25.56h-3.46L233,57.14H222l-2.88,7.49h-3.46Zm5.89,15.55-4.52-11.81L223,54.62Z" transform="translate(-13.71 -7.93)"/><path class="cls-1" d="M246,45.05V64.63h-3.24V39.07h2.74l15.62,20V39.1h3.24V64.63h-3Z" transform="translate(-13.71 -7.93)"/><path class="cls-1" d="M154.36,95.63V70.07H165a6.82,6.82,0,0,1,3.1.7,8.15,8.15,0,0,1,2.45,1.87,9,9,0,0,1,1.62,2.63,8.08,8.08,0,0,1,.57,3,8.91,8.91,0,0,1-.93,4,8,8,0,0,1-2.63,3.06,6.8,6.8,0,0,1-4,1.17H157.6v9.18Zm3.24-12.06h7.45a3.83,3.83,0,0,0,2.32-.72,4.83,4.83,0,0,0,1.55-1.94,6.42,6.42,0,0,0,.56-2.67,5.69,5.69,0,0,0-.65-2.72,5.17,5.17,0,0,0-1.69-1.89,4.19,4.19,0,0,0-2.31-.68H157.6Z" transform="translate(-13.71 -7.93)"/><path class="cls-1" d="M182.94,70.07h2.74l10.44,25.56h-3.46l-2.87-7.49h-11l-2.88,7.49h-3.45Zm5.89,15.55-4.52-11.81-4.54,11.81Z" transform="translate(-13.71 -7.93)"/><path class="cls-1" d="M215.56,73h-8.82V95.63H203.5V73h-8.82V70.07h20.88Z" transform="translate(-13.71 -7.93)"/><path class="cls-1" d="M219.23,95.63V70.07h10.94a6.82,6.82,0,0,1,3.1.7,8.15,8.15,0,0,1,2.45,1.87,9,9,0,0,1,1.62,2.63,8.08,8.08,0,0,1,.57,3,8.63,8.63,0,0,1-.66,3.35,7.74,7.74,0,0,1-1.87,2.7,6.72,6.72,0,0,1-2.83,1.55l6.19,9.79h-3.67l-5.83-9.18h-6.77v9.18Zm3.24-12.06h7.74a3.78,3.78,0,0,0,2.32-.74,4.89,4.89,0,0,0,1.55-2,6.3,6.3,0,0,0,.56-2.63A5.49,5.49,0,0,0,234,75.6a5.39,5.39,0,0,0-1.69-1.93A4,4,0,0,0,230,73h-7.52Z" transform="translate(-13.71 -7.93)"/><path class="cls-1" d="M242.88,95.63V70.07h3.24V95.63Z" transform="translate(-13.71 -7.93)"/><path class="cls-1" d="M250.59,82.63a13.37,13.37,0,0,1,3.18-8.69,11.41,11.41,0,0,1,3.83-3,11.73,11.73,0,0,1,5.15-1.1,10.61,10.61,0,0,1,5.87,1.57,9.86,9.86,0,0,1,3.64,4l-2.56,1.66a7.17,7.17,0,0,0-1.93-2.58,7.35,7.35,0,0,0-2.52-1.35,9.49,9.49,0,0,0-2.64-.39,7.87,7.87,0,0,0-3.76.86,8.43,8.43,0,0,0-2.76,2.3,10.23,10.23,0,0,0-1.67,3.23,11.94,11.94,0,0,0-.56,3.58,10.92,10.92,0,0,0,.67,3.81,10.33,10.33,0,0,0,1.85,3.24,8.92,8.92,0,0,0,2.81,2.23,7.53,7.53,0,0,0,3.53.83,8.64,8.64,0,0,0,2.73-.46A8.55,8.55,0,0,0,268.08,91,6.87,6.87,0,0,0,270,88.39l2.7,1.48a8.05,8.05,0,0,1-2.44,3.24,12.07,12.07,0,0,1-3.69,2,12.76,12.76,0,0,1-4,.68,10.4,10.4,0,0,1-4.82-1.13,12.42,12.42,0,0,1-3.8-3,14,14,0,0,1-2.48-4.25A13.46,13.46,0,0,1,250.59,82.63Z" transform="translate(-13.71 -7.93)"/><path class="cls-1" d="M276.79,95.63V70.07H280V95.63Z" transform="translate(-13.71 -7.93)"/><path class="cls-1" d="M296.52,95.81a11,11,0,0,1-4.9-1.08,11.92,11.92,0,0,1-3.79-2.93,13.67,13.67,0,0,1-2.47-4.18,13.5,13.5,0,0,1-.86-4.77,13.21,13.21,0,0,1,.91-4.88A13.76,13.76,0,0,1,288,73.83,12.42,12.42,0,0,1,291.8,71a10.84,10.84,0,0,1,4.79-1.06,10.61,10.61,0,0,1,4.9,1.12,12.18,12.18,0,0,1,3.78,3,14.28,14.28,0,0,1,2.45,4.18,13.49,13.49,0,0,1,.86,4.72,13.42,13.42,0,0,1-3.44,9,12.09,12.09,0,0,1-3.83,2.87A11.11,11.11,0,0,1,296.52,95.81Zm-8.75-13a11.41,11.41,0,0,0,.63,3.76,10.5,10.5,0,0,0,1.78,3.22A8.59,8.59,0,0,0,293,92.06a8.24,8.24,0,0,0,7.27,0A8.51,8.51,0,0,0,303,89.72a10.36,10.36,0,0,0,1.73-3.23,11.46,11.46,0,0,0,.59-3.64,11.31,11.31,0,0,0-.63-3.75,10.6,10.6,0,0,0-1.8-3.22,8.63,8.63,0,0,0-2.77-2.23,8.27,8.27,0,0,0-7.22,0A8.4,8.4,0,0,0,290.13,76a10.86,10.86,0,0,0-1.75,3.23A11.32,11.32,0,0,0,287.77,82.85Z" transform="translate(-13.71 -7.93)"/><line class="cls-2" x1="134.63" y1="23.88" x2="299.26" y2="23.88"/><line class="cls-2" x1="130.48" y1="97.6" x2="303.41" y2="97.6"/><path class="cls-3" d="M68.81,10.16c33.37,0,60.42,26.26,60.42,58.65s-27,58.66-60.42,58.66" transform="translate(-13.71 -7.93)"/><path class="cls-4" d="M71.56,126.73c-2.32.08-19,.43-29.73-12.24-10.39-12.21-11-31.41-.81-46.65" transform="translate(-13.71 -7.93)"/><path class="cls-4" d="M68.81,121.36H54.17L41,69.18,60.7,56.51A34.09,34.09,0,0,1,67,62.44C83.76,82.75,70.82,116.34,68.81,121.36Z" transform="translate(-13.71 -7.93)"/><path class="cls-4" d="M129.23,68.07c0,32.81-25.37,59.4-56.66,59.4S15.9,100.88,15.9,68.07" transform="translate(-13.71 -7.93)"/><ellipse class="cls-4" cx="88.99" cy="61.73" rx="7.85" ry="23.98" transform="translate(-8.17 122.84) rotate(-74.35)"/><path class="cls-5" d="M129.36,69a66.53,66.53,0,0,0-16.29-11c-2.16-1-3.9-1.7-4.93-2.09a67.91,67.91,0,0,0-18.42-4.61,88.72,88.72,0,0,0-10.22-.2c-.72,0-2.27.17-5.37.46a28.28,28.28,0,0,0-4.29.75l-1.06.26c15.45-1.05,25.17,3.13,31.3,7.38a151.23,151.23,0,0,1,19.3,15.49c2.54,3.13,6.38,8.55,8.16,7.76.55-.24.77-1.41,1.22-3.75a39.42,39.42,0,0,0,.64-6.49C129.44,71.38,129.41,70.05,129.36,69Z" transform="translate(-13.71 -7.93)"/><path class="cls-5" d="M124.45,91.75a70.12,70.12,0,0,0-14.91-20.33A72.83,72.83,0,0,0,70.62,52.78c7.72,2.35,18.8,7,26.65,15.85a94.26,94.26,0,0,1,9.81,13.74c1.43,2.44,1.39,2.64,5.09,9.23,3.3,5.85,3.58,6.14,4.1,7.76s1,3.87,1.74,3.86c.25,0,.42-.27,1.22-1.7s1.2-2.14,1.56-2.83c.88-1.66,1-1.66,1.84-3.25C123.1,94.58,123.74,93.33,124.45,91.75Z" transform="translate(-13.71 -7.93)"/><path class="cls-5" d="M108.22,114.31a86.92,86.92,0,0,0-7.42-24.75A90.85,90.85,0,0,0,67.53,52.2c3.25,3.89,14.58,17.65,21.82,31a90.11,90.11,0,0,1,5.59,12.29,79.78,79.78,0,0,1,3.43,13c.06.33.31,2.45.82,6.67a22.67,22.67,0,0,1,.32,3.4c0,1.13-.21,2,.09,2.13s.47-.48,1.41-1.08,1.26-.39,2-1l.88-.73.49-.39c.89-.69,1.19-.8,1.85-1.29A11.78,11.78,0,0,0,108.22,114.31Z" transform="translate(-13.71 -7.93)"/><path class="cls-6" d="M52.75,123a34.52,34.52,0,0,1-14-13.06c-6.83-11.68-6-27.3,1-36.29,3.94-5,11.3-9.8,13.22-11a71.1,71.1,0,0,1,6.2-3.64A58.31,58.31,0,0,0,45.47,73.36C43,77,40.76,80.52,39.8,85.77A30,30,0,0,0,40.34,98,31.89,31.89,0,0,0,46,109.5c1.91,2.46,4,4.15,8.22,7.55A18.72,18.72,0,0,0,58.94,120a21.19,21.19,0,0,0,2.9.94c3.2.78,4.33.23,4.8,1,.73,1.22-1.13,4.25-2.77,4.32-.12,0-.54-.08-1.37-.24l-2-.42c-1.38-.3-1.37-.25-2.12-.42a20.39,20.39,0,0,1-3.23-1.08C54.53,123.81,53.7,123.45,52.75,123Z" transform="translate(-13.71 -7.93)"/><path class="cls-7" d="M68.79,10.15c33.87,0,61.33,26.65,61.33,59.54s-27.46,59.53-61.33,59.53" transform="translate(-13.71 -7.93)"/><path class="cls-8" d="M50,29.28c.89,7.9,4.68,22.44,10.26,22.91,8.4.72,22.16-30.22,12.18-40.38-4.36-4.44-13.62-5.27-18.69-1.42C48.34,14.49,49.26,22.72,50,29.28Z" transform="translate(-13.71 -7.93)"/><path class="cls-8" d="M83.83,46.18c-6.71,4.1-20.36,9.88-24.13,5.66C54,45.5,69.81,15.58,83.81,17.45c6.12.82,12.4,7.78,12.48,14.21C96.38,38.52,89.39,42.79,83.83,46.18Z" transform="translate(-13.71 -7.93)"/><path class="cls-8" d="M55.11,79.77c-1.43-7.34-2.13-21.21,2.7-22.65C65.08,55,86,80.54,79.94,91.56c-2.63,4.82-10.63,7.25-16.21,4.67C57.77,93.49,56.29,85.85,55.11,79.77Z" transform="translate(-13.71 -7.93)"/><path class="cls-8" d="M83.51,56.18c-7.68-2.71-22.53-5.71-24.88-.84-3.52,7.32,20.67,33.58,33.55,29,5.63-2,9.55-10.06,7.68-16.38C97.87,61.23,89.87,58.42,83.51,56.18Z" transform="translate(-13.71 -7.93)"/><path class="cls-8" d="M39.49,71.1C46.27,68,57.93,60.41,56.27,55.65c-2.49-7.16-35.47-9.12-40.88,2.21-2.36,5,.35,12.86,5.7,15.88C26.8,77,33.87,73.7,39.49,71.1Z" transform="translate(-13.71 -7.93)"/><path class="cls-8" d="M42,34.26c6.69,4.65,17.81,14.93,15.24,19.68-3.88,7.15-39.33,2.89-43.16-10.22C12.41,38,16.64,30.09,22.86,27.91,29.49,25.57,36.45,30.41,42,34.26Z" transform="translate(-13.71 -7.93)"/><circle class="cls-8" cx="43.57" cy="46.2" r="6.28"/></svg>