<?xml version="1.0" encoding="utf-8"?>
<!-- Generator: Adobe Illustrator 24.1.1, SVG Export Plug-In . SVG Version: 6.00 Build 0)  -->
<svg version="1.1" id="Layer_1" xmlns="http://www.w3.org/2000/svg" xmlns:xlink="http://www.w3.org/1999/xlink" x="0px" y="0px"
	 viewBox="0 0 335.2 145.5" style="enable-background:new 0 0 335.2 145.5;" xml:space="preserve">
<style type="text/css">
	.st0{fill:#89261B;}
	.st1{fill:none;stroke:#000000;stroke-miterlimit:10;}
	.st2{fill:#E4E87A;}
	.st3{fill:#A9D37A;}
	.st4{fill:#8CB83F;}
	.st5{fill:#25A049;}
	.st6{fill:none;stroke:#FFFFFF;stroke-width:2;stroke-miterlimit:10;}
	.st7{fill:#288A42;}
</style>
<g>
	<g>
		<path class="st0" d="M201.1,59.2l1.8-2.1c1.7,1.8,4.1,2.9,6.5,2.9c3.1,0,4.9-1.5,4.9-3.8c0-2.4-1.7-3.2-3.9-4.2l-3.4-1.5
			c-2.2-0.9-4.8-2.6-4.8-6.1c0-3.6,3.1-6.3,7.4-6.3c2.8,0,5.3,1.2,7,2.9l-1.6,1.9c-1.4-1.4-3.2-2.2-5.4-2.2c-2.6,0-4.4,1.3-4.4,3.5
			c0,2.3,2.1,3.1,3.9,3.9l3.4,1.5c2.7,1.2,4.9,2.8,4.9,6.3c0,3.7-3.1,6.7-8.1,6.7C206.1,62.7,203.2,61.4,201.1,59.2z"/>
		<path class="st0" d="M226.9,38.7h3.4l8,23.6h-3.2L231,49.1c-0.8-2.6-1.6-5.2-2.4-8h-0.1c-0.7,2.7-1.5,5.3-2.3,8L222,62.3h-3.1
			L226.9,38.7z M223.1,52.7H234v2.4h-10.9V52.7z"/>
		<path class="st0" d="M241.6,38.7h3.1l8.6,14.9l2.5,4.9h0.1c-0.2-2.4-0.4-5-0.4-7.5V38.7h2.9v23.6h-3.1l-8.5-14.9l-2.6-4.9h-0.1
			c0.2,2.4,0.4,4.9,0.4,7.4v12.4h-2.9V38.7z"/>
		<path class="st0" d="M157.6,69.7h6.7c5.3,0,8.9,1.8,8.9,7c0,5-3.6,7.3-8.7,7.3h-3.9v9.4h-3V69.7z M164.1,81.5
			c4.1,0,6.1-1.5,6.1-4.9c0-3.4-2.1-4.5-6.2-4.5h-3.4v9.4H164.1z"/>
		<path class="st0" d="M182.8,69.7h3.4l8,23.6H191l-4.1-13.2c-0.8-2.6-1.6-5.2-2.4-8h-0.1c-0.7,2.7-1.5,5.3-2.3,8l-4.2,13.2h-3.1
			L182.8,69.7z M179,83.7h10.9v2.4H179V83.7z"/>
		<path class="st0" d="M202.5,72.2h-7.1v-2.5h17.3v2.5h-7.1v21.1h-3V72.2z"/>
		<path class="st0" d="M216.8,69.7h3v23.6h-3V69.7z"/>
		<path class="st0" d="M226.3,69.7h7.4c4.8,0,8.3,1.7,8.3,6.6c0,4.7-3.5,7-8.3,7h-4.4v10h-3V69.7z M233.3,80.9
			c3.7,0,5.7-1.5,5.7-4.6c0-3.1-2-4.2-5.7-4.2h-4v8.8H233.3z M233.1,82.5l2.4-1.6l7.2,12.4h-3.4L233.1,82.5z"/>
		<path class="st0" d="M246.8,69.7h3v23.6h-3V69.7z"/>
		<path class="st0" d="M254.9,81.5c0-7.6,4.5-12.3,10.5-12.3c2.9,0,5.1,1.4,6.5,2.9l-1.6,2c-1.2-1.3-2.8-2.2-4.8-2.2
			c-4.5,0-7.4,3.7-7.4,9.5c0,5.9,2.8,9.7,7.3,9.7c2.3,0,4-1,5.5-2.7l1.6,1.9c-1.9,2.2-4.2,3.4-7.2,3.4
			C259.3,93.7,254.9,89.2,254.9,81.5z"/>
		<path class="st0" d="M276.8,69.7h3v23.6h-3V69.7z"/>
		<path class="st0" d="M284.9,81.4c0-7.6,4.2-12.2,10.1-12.2c5.9,0,10.1,4.6,10.1,12.2c0,7.6-4.2,12.3-10.1,12.3
			C289.1,93.7,284.9,89,284.9,81.4z M302,81.4c0-5.9-2.8-9.5-7-9.5s-7,3.6-7,9.5s2.8,9.7,7,9.7S302,87.3,302,81.4z"/>
	</g>
</g>
<line class="st1" x1="144.2" y1="34.2" x2="308.8" y2="34.2"/>
<line class="st1" x1="144.2" y1="105.5" x2="317.1" y2="105.5"/>
<path class="st2" d="M68.8,10.2c33.4,0,60.4,26.3,60.4,58.7s-27.1,58.7-60.4,58.7"/>
<path class="st3" d="M71.6,126.7c-2.3,0.1-18.9,0.4-29.7-12.2c-10.4-12.2-11-31.4-0.8-46.7"/>
<path class="st3" d="M68.8,121.4H54.2C49.8,104,45.4,86.6,41,69.2c6.6-4.2,13.1-8.4,19.7-12.7c2.6,1.9,4.7,3.9,6.3,5.9
	C83.8,82.7,70.8,116.3,68.8,121.4z"/>
<path class="st3" d="M129.2,68.1c0,32.8-25.4,59.4-56.7,59.4s-56.7-26.6-56.7-59.4"/>
<ellipse transform="matrix(0.2698 -0.9629 0.9629 0.2698 5.5436 130.7729)" class="st3" cx="89" cy="61.7" rx="7.8" ry="24"/>
<path class="st4" d="M129.4,69c-6.1-5.6-11.9-9-16.3-11c-2.2-1-3.9-1.7-4.9-2.1c-3.5-1.3-9.9-3.8-18.4-4.6c0,0-4.9-0.4-10.2-0.2
	c-0.7,0-2.3,0.2-5.4,0.5c-2.1,0.2-3.4,0.6-4.3,0.8c-0.4,0.1-0.8,0.2-1.1,0.3c15.5-1.1,25.2,3.1,31.3,7.4
	c12.6,8.8,19.3,15.5,19.3,15.5c2.5,3.1,6.4,8.5,8.2,7.8c0.5-0.2,0.8-1.4,1.2-3.8c0.2-1.1,0.6-3.2,0.6-6.5
	C129.4,71.4,129.4,70,129.4,69z"/>
<path class="st4" d="M124.5,91.7c-2.7-5.6-7.3-13.2-14.9-20.3C94.8,57.5,77.9,53.9,70.6,52.8c7.7,2.4,18.8,7,26.7,15.8
	c1.9,2.1,6,7.2,9.8,13.7c1.4,2.4,1.4,2.6,5.1,9.2c3.3,5.9,3.6,6.1,4.1,7.8c0.6,1.7,1,3.9,1.7,3.9c0.3,0,0.4-0.3,1.2-1.7
	c0.8-1.4,1.2-2.1,1.6-2.8c0.9-1.7,1-1.7,1.8-3.2C123.1,94.6,123.7,93.3,124.5,91.7z"/>
<path class="st4" d="M108.2,114.3c-1-6.7-3-15.4-7.4-24.7C91,68.8,75.4,57.2,67.5,52.2c3.2,3.9,14.6,17.6,21.8,31
	c3.4,6.3,5.1,11,5.6,12.3c1.9,5.2,2.9,9.7,3.4,13c0.1,0.3,0.3,2.4,0.8,6.7c0.3,2.5,0.3,2.8,0.3,3.4c0,1.1-0.2,2,0.1,2.1
	c0.3,0.1,0.5-0.5,1.4-1.1c0.9-0.6,1.3-0.4,2-1c0.1-0.1,0.4-0.3,0.9-0.7c0.1-0.1,0.3-0.2,0.5-0.4c0.9-0.7,1.2-0.8,1.9-1.3
	C106.8,115.8,107.5,115.2,108.2,114.3z"/>
<path class="st5" d="M52.7,123c-3.6-1.9-9.7-5.8-14-13.1c-6.8-11.7-6-27.3,1.1-36.3c3.9-5,11.3-9.8,13.2-11.1
	c2.5-1.6,4.7-2.8,6.2-3.6c-7,5.2-11.3,10.7-13.8,14.4c-2.4,3.7-4.7,7.2-5.7,12.4c-0.2,1-1,6,0.5,12.3c0.4,1.4,1.7,6.4,5.7,11.5
	c1.9,2.5,4,4.2,8.2,7.6c1.2,0.9,2.6,2,4.7,2.9c1.4,0.6,2.7,0.9,2.9,0.9c3.2,0.8,4.3,0.2,4.8,1c0.7,1.2-1.1,4.2-2.8,4.3
	c-0.1,0-0.5-0.1-1.4-0.2c-0.8-0.2-1.3-0.3-2-0.4c-1.4-0.3-1.4-0.2-2.1-0.4c-1.3-0.3-2.2-0.7-3.2-1.1C54.5,123.8,53.7,123.5,52.7,123
	z"/>
<path class="st6" d="M68.8,10.1c33.9,0,61.3,26.7,61.3,59.5s-27.5,59.5-61.3,59.5"/>
<path class="st7" d="M50,29.3c0.9,7.9,4.7,22.4,10.3,22.9c8.4,0.7,22.2-30.2,12.2-40.4c-4.4-4.4-13.6-5.3-18.7-1.4
	C48.3,14.5,49.3,22.7,50,29.3z"/>
<path class="st7" d="M83.8,46.2c-6.7,4.1-20.4,9.9-24.1,5.7C54,45.5,69.8,15.6,83.8,17.4c6.1,0.8,12.4,7.8,12.5,14.2
	C96.4,38.5,89.4,42.8,83.8,46.2z"/>
<path class="st7" d="M55.1,79.8c-1.4-7.3-2.1-21.2,2.7-22.7c7.3-2.2,28.2,23.4,22.1,34.4c-2.6,4.8-10.6,7.2-16.2,4.7
	C57.8,93.5,56.3,85.9,55.1,79.8z"/>
<path class="st7" d="M83.5,56.2c-7.7-2.7-22.5-5.7-24.9-0.8c-3.5,7.3,20.7,33.6,33.5,29c5.6-2,9.6-10.1,7.7-16.4
	C97.9,61.2,89.9,58.4,83.5,56.2z"/>
<path class="st7" d="M39.5,71.1c6.8-3.1,18.4-10.7,16.8-15.5c-2.5-7.2-35.5-9.1-40.9,2.2c-2.4,5,0.3,12.9,5.7,15.9
	C26.8,77,33.9,73.7,39.5,71.1z"/>
<path class="st7" d="M42,34.3c6.7,4.6,17.8,14.9,15.2,19.7c-3.9,7.1-39.3,2.9-43.2-10.2c-1.7-5.7,2.6-13.6,8.8-15.8
	C29.5,25.6,36.5,30.4,42,34.3z"/>
<circle class="st7" cx="57.3" cy="54.1" r="6.3"/>
</svg>
