<svg id="Layer_1" data-name="Layer 1" xmlns="http://www.w3.org/2000/svg" viewBox="0 0 303.41 122.29"><defs><style>.cls-1{fill:#89261b;}.cls-2,.cls-7{fill:none;stroke-miterlimit:10;}.cls-2{stroke:#231f20;}.cls-3{fill:#e4e87a;}.cls-4{fill:#a9d37a;}.cls-5{fill:#8cb83f;}.cls-6{fill:#25a049;}.cls-7{stroke:#fff;stroke-width:2px;}.cls-8{fill:#288a42;}</style></defs><path class="cls-1" d="M217.57,43.86a6.38,6.38,0,0,0-1.26-1.1,8.26,8.26,0,0,0-1.62-.85,11.29,11.29,0,0,0-1.92-.57,10.2,10.2,0,0,0-2.18-.22,7.72,7.72,0,0,0-4.91,1.28,4.21,4.21,0,0,0-1.57,3.47,3.56,3.56,0,0,0,.74,2.37,5.19,5.19,0,0,0,2.32,1.4c1.06.36,2.4.73,4,1.11a29,29,0,0,1,4.72,1.37A7.28,7.28,0,0,1,219,54.26a5.67,5.67,0,0,1,1.08,3.65,6.39,6.39,0,0,1-.69,3.05,6,6,0,0,1-1.9,2.16,8.75,8.75,0,0,1-2.92,1.28,15.91,15.91,0,0,1-3.71.41,16.83,16.83,0,0,1-3.8-.42,14.88,14.88,0,0,1-3.43-1.22,13.8,13.8,0,0,1-3-2.07l1.26-2.05a9.38,9.38,0,0,0,1.64,1.35,13.26,13.26,0,0,0,2.12,1.13,12.35,12.35,0,0,0,2.52.78,14.19,14.19,0,0,0,2.79.27,8.63,8.63,0,0,0,4.77-1.12,3.68,3.68,0,0,0,1.71-3.3,3.62,3.62,0,0,0-.86-2.54,6.35,6.35,0,0,0-2.59-1.56,39.78,39.78,0,0,0-4.25-1.19,28.44,28.44,0,0,1-4.5-1.36,6.25,6.25,0,0,1-2.75-2,5.33,5.33,0,0,1-.92-3.29,6.69,6.69,0,0,1,1.17-4,7.22,7.22,0,0,1,3.22-2.49,12.38,12.38,0,0,1,4.72-.84,13.77,13.77,0,0,1,3.15.34,11.72,11.72,0,0,1,2.7,1,11.27,11.27,0,0,1,2.32,1.62Z" transform="translate(-13.71 -7.93)"/><path class="cls-1" d="M222.47,59.27a4.69,4.69,0,0,1,1-3,6.56,6.56,0,0,1,2.79-2,11.37,11.37,0,0,1,4.12-.69,20.12,20.12,0,0,1,2.84.21,13,13,0,0,1,2.63.65V52.86a5.11,5.11,0,0,0-1.4-3.76,5.28,5.28,0,0,0-3.89-1.39,8.28,8.28,0,0,0-3,.56,14.28,14.28,0,0,0-3,1.64l-.94-1.73a16.05,16.05,0,0,1,3.6-1.89,10.66,10.66,0,0,1,3.6-.63,7.44,7.44,0,0,1,5.47,2,7.21,7.21,0,0,1,2,5.43v8.62a1,1,0,0,0,.22.74,1,1,0,0,0,.68.26v1.95l-.68.07a1.57,1.57,0,0,1-.44,0,1.78,1.78,0,0,1-1.36-.57,1.92,1.92,0,0,1-.51-1.16l0-1.37a8.4,8.4,0,0,1-3.28,2.51,10.29,10.29,0,0,1-4.1.88,6.88,6.88,0,0,1-3.26-.77,5.71,5.71,0,0,1-2.27-2.08A5.34,5.34,0,0,1,222.47,59.27ZM235,60.69a4.84,4.84,0,0,0,.62-1,2,2,0,0,0,.21-.82V56.2a15.14,15.14,0,0,0-2.54-.72,14.66,14.66,0,0,0-2.64-.25,7.77,7.77,0,0,0-4.25,1,3.19,3.19,0,0,0-1.62,2.82,3.74,3.74,0,0,0,.54,1.94,4.16,4.16,0,0,0,1.58,1.5,5,5,0,0,0,2.45.59,8,8,0,0,0,3.29-.68A5.89,5.89,0,0,0,235,60.69Z" transform="translate(-13.71 -7.93)"/><path class="cls-1" d="M259.37,64.63h-2.45V54.22a9.16,9.16,0,0,0-1-4.81,3.38,3.38,0,0,0-3.06-1.52,6.24,6.24,0,0,0-2.84.7,7.94,7.94,0,0,0-2.47,1.89,7.24,7.24,0,0,0-1.53,2.73V64.63H243.6V46h2.23V50.2a8.67,8.67,0,0,1,2-2.38,9.32,9.32,0,0,1,2.78-1.59,9.19,9.19,0,0,1,3.2-.57,5.58,5.58,0,0,1,2.63.57,4.44,4.44,0,0,1,1.73,1.63,7.54,7.54,0,0,1,.93,2.54,17.58,17.58,0,0,1,.29,3.31Z" transform="translate(-13.71 -7.93)"/><path class="cls-1" d="M172.23,95.63V70.07h10.59a6.88,6.88,0,0,1,3,.68,7.6,7.6,0,0,1,2.39,1.86,9.46,9.46,0,0,1,1.59,2.59,7.72,7.72,0,0,1,.57,2.9,8.67,8.67,0,0,1-.92,3.94,7.83,7.83,0,0,1-2.57,3A6.69,6.69,0,0,1,183,86.2h-8.28v9.43ZM174.75,84h8.17a4.3,4.3,0,0,0,2.63-.83A5.43,5.43,0,0,0,187.28,81a6.8,6.8,0,0,0,.61-2.88,6,6,0,0,0-.72-2.92,5.66,5.66,0,0,0-1.89-2.1,4.54,4.54,0,0,0-2.57-.78h-8Z" transform="translate(-13.71 -7.93)"/><path class="cls-1" d="M192.43,90.27a4.69,4.69,0,0,1,1-3,6.56,6.56,0,0,1,2.79-2,11.33,11.33,0,0,1,4.12-.69,20.12,20.12,0,0,1,2.84.21,13,13,0,0,1,2.63.65V83.86a5.11,5.11,0,0,0-1.4-3.76,5.29,5.29,0,0,0-3.89-1.39,8.28,8.28,0,0,0-3,.56,14.28,14.28,0,0,0-3,1.64l-.94-1.73a15.64,15.64,0,0,1,3.6-1.89,10.66,10.66,0,0,1,3.6-.63,7.46,7.46,0,0,1,5.47,2,7.21,7.21,0,0,1,2,5.43v8.62a1.09,1.09,0,0,0,.21.74,1,1,0,0,0,.69.26v1.95l-.69.07a1.51,1.51,0,0,1-.43,0,1.81,1.81,0,0,1-1.37-.57,1.91,1.91,0,0,1-.5-1.16l0-1.37a8.3,8.3,0,0,1-3.27,2.51,10.3,10.3,0,0,1-4.11.88,6.87,6.87,0,0,1-3.25-.77,5.65,5.65,0,0,1-2.27-2.08A5.34,5.34,0,0,1,192.43,90.27ZM205,91.69a4.36,4.36,0,0,0,.61-1,1.9,1.9,0,0,0,.22-.82V87.2a15.41,15.41,0,0,0-2.54-.72,14.66,14.66,0,0,0-2.64-.25,7.77,7.77,0,0,0-4.25,1,3.19,3.19,0,0,0-1.62,2.82,3.74,3.74,0,0,0,.54,1.94,4.16,4.16,0,0,0,1.58,1.5,4.94,4.94,0,0,0,2.45.59,8,8,0,0,0,3.29-.68A6,6,0,0,0,205,91.69Z" transform="translate(-13.71 -7.93)"/><path class="cls-1" d="M222.42,94.87c-.2.08-.5.21-.9.4a8,8,0,0,1-1.48.5,7.43,7.43,0,0,1-1.87.22,4.77,4.77,0,0,1-2-.4,3.21,3.21,0,0,1-1.46-1.21,3.55,3.55,0,0,1-.54-2V78.89h-2.59V77h2.59V70.61h2.45V77H221v1.94h-4.32V91.7a2,2,0,0,0,.73,1.52,2.53,2.53,0,0,0,1.53.5,4.71,4.71,0,0,0,1.84-.34,5.43,5.43,0,0,0,1-.49Z" transform="translate(-13.71 -7.93)"/><path class="cls-1" d="M234.84,79a7.8,7.8,0,0,0-4.31,1.37A6.94,6.94,0,0,0,227.92,84V95.63h-2.44V77h2.3v4.42a9,9,0,0,1,2.57-3.2,6.41,6.41,0,0,1,3.41-1.37l.63,0a2.81,2.81,0,0,1,.45,0Z" transform="translate(-13.71 -7.93)"/><path class="cls-1" d="M238.11,73v-3.6h2.45V73Zm0,22.68V76.87h2.45V95.63Z" transform="translate(-13.71 -7.93)"/><path class="cls-1" d="M254.1,96a9,9,0,0,1-6.75-2.9,9.63,9.63,0,0,1-2-3.12,9.85,9.85,0,0,1-.71-3.72,10,10,0,0,1,1.19-4.83A9,9,0,0,1,249.16,78a9.26,9.26,0,0,1,4.9-1.29,8.89,8.89,0,0,1,4.64,1.2,7.46,7.46,0,0,1,3,3.26l-2.37.76a5.72,5.72,0,0,0-2.22-2.25,6.26,6.26,0,0,0-3.15-.81,6.35,6.35,0,0,0-3.42,1,7.06,7.06,0,0,0-2.46,2.65,7.74,7.74,0,0,0-.92,3.82,7.92,7.92,0,0,0,.93,3.83,7.63,7.63,0,0,0,2.49,2.73,6.08,6.08,0,0,0,3.42,1,6.68,6.68,0,0,0,4.34-1.6,3.73,3.73,0,0,0,1.13-1.6l2.41.72a6.16,6.16,0,0,1-1.67,2.39,8.32,8.32,0,0,1-2.74,1.65A9.28,9.28,0,0,1,254.1,96Z" transform="translate(-13.71 -7.93)"/><path class="cls-1" d="M265.72,73v-3.6h2.45V73Zm0,22.68V76.87h2.45V95.63Z" transform="translate(-13.71 -7.93)"/><path class="cls-1" d="M281.6,96a9,9,0,0,1-6.72-2.88A10,10,0,0,1,273,90a9.84,9.84,0,0,1-.68-3.67,10,10,0,0,1,.68-3.74,9.58,9.58,0,0,1,1.94-3.08,9.09,9.09,0,0,1,3-2.11,8.86,8.86,0,0,1,3.73-.77,8.77,8.77,0,0,1,3.71.77,9.22,9.22,0,0,1,2.95,2.11,9.41,9.41,0,0,1,1.94,3.08,10,10,0,0,1,.69,3.74A9.85,9.85,0,0,1,290.2,90a9.63,9.63,0,0,1-1.92,3.08A9,9,0,0,1,281.6,96Zm-6.84-9.6a7.86,7.86,0,0,0,.92,3.78,7.15,7.15,0,0,0,2.46,2.68,6.28,6.28,0,0,0,3.42,1,6.14,6.14,0,0,0,3.42-1,7.42,7.42,0,0,0,2.49-2.74,7.89,7.89,0,0,0,.93-3.8,7.79,7.79,0,0,0-.93-3.76A7.4,7.4,0,0,0,285,79.82a6.14,6.14,0,0,0-3.42-1,6,6,0,0,0-3.42,1,7.57,7.57,0,0,0-2.46,2.74A7.88,7.88,0,0,0,274.76,86.39Z" transform="translate(-13.71 -7.93)"/><line class="cls-2" x1="134.63" y1="23.88" x2="299.26" y2="23.88"/><line class="cls-2" x1="130.48" y1="97.6" x2="303.41" y2="97.6"/><path class="cls-3" d="M68.81,10.16c33.37,0,60.42,26.26,60.42,58.65s-27,58.66-60.42,58.66" transform="translate(-13.71 -7.93)"/><path class="cls-4" d="M71.56,126.73c-2.32.08-19,.43-29.73-12.24-10.39-12.21-11-31.41-.81-46.65" transform="translate(-13.71 -7.93)"/><path class="cls-4" d="M68.81,121.36H54.17L41,69.18,60.7,56.51A34.09,34.09,0,0,1,67,62.44C83.76,82.75,70.82,116.34,68.81,121.36Z" transform="translate(-13.71 -7.93)"/><path class="cls-4" d="M129.23,68.07c0,32.81-25.37,59.4-56.66,59.4S15.9,100.88,15.9,68.07" transform="translate(-13.71 -7.93)"/><ellipse class="cls-4" cx="88.99" cy="61.73" rx="7.85" ry="23.98" transform="translate(-8.17 122.84) rotate(-74.35)"/><path class="cls-5" d="M129.36,69a66.53,66.53,0,0,0-16.29-11c-2.16-1-3.9-1.7-4.93-2.09a67.91,67.91,0,0,0-18.42-4.61,88.72,88.72,0,0,0-10.22-.2c-.72,0-2.27.17-5.37.46a28.28,28.28,0,0,0-4.29.75l-1.06.26c15.45-1.05,25.17,3.13,31.3,7.38a151.23,151.23,0,0,1,19.3,15.49c2.54,3.13,6.38,8.55,8.16,7.76.55-.24.77-1.41,1.22-3.75a39.42,39.42,0,0,0,.64-6.49C129.44,71.38,129.41,70.05,129.36,69Z" transform="translate(-13.71 -7.93)"/><path class="cls-5" d="M124.45,91.75a70.12,70.12,0,0,0-14.91-20.33A72.83,72.83,0,0,0,70.62,52.78c7.72,2.35,18.8,7,26.65,15.85a94.26,94.26,0,0,1,9.81,13.74c1.43,2.44,1.39,2.64,5.09,9.23,3.3,5.85,3.58,6.14,4.1,7.76s1,3.87,1.74,3.86c.25,0,.42-.27,1.22-1.7s1.2-2.14,1.56-2.83c.88-1.66,1-1.66,1.84-3.25C123.1,94.58,123.74,93.33,124.45,91.75Z" transform="translate(-13.71 -7.93)"/><path class="cls-5" d="M108.22,114.31a86.92,86.92,0,0,0-7.42-24.75A90.85,90.85,0,0,0,67.53,52.2c3.25,3.89,14.58,17.65,21.82,31a90.11,90.11,0,0,1,5.59,12.29,79.78,79.78,0,0,1,3.43,13c.06.33.31,2.45.82,6.67a22.67,22.67,0,0,1,.32,3.4c0,1.13-.21,2,.09,2.13s.47-.48,1.41-1.08,1.26-.39,2-1l.88-.73.49-.39c.89-.69,1.19-.8,1.85-1.29A11.78,11.78,0,0,0,108.22,114.31Z" transform="translate(-13.71 -7.93)"/><path class="cls-6" d="M52.75,123a34.52,34.52,0,0,1-14-13.06c-6.83-11.68-6-27.3,1-36.29,3.94-5,11.3-9.8,13.22-11a71.1,71.1,0,0,1,6.2-3.64A58.31,58.31,0,0,0,45.47,73.36C43,77,40.76,80.52,39.8,85.77A30,30,0,0,0,40.34,98,31.89,31.89,0,0,0,46,109.5c1.91,2.46,4,4.15,8.22,7.55A18.72,18.72,0,0,0,58.94,120a21.19,21.19,0,0,0,2.9.94c3.2.78,4.33.23,4.8,1,.73,1.22-1.13,4.25-2.77,4.32-.12,0-.54-.08-1.37-.24l-2-.42c-1.38-.3-1.37-.25-2.12-.42a20.39,20.39,0,0,1-3.23-1.08C54.53,123.81,53.7,123.45,52.75,123Z" transform="translate(-13.71 -7.93)"/><path class="cls-7" d="M68.79,10.15c33.87,0,61.33,26.65,61.33,59.54s-27.46,59.53-61.33,59.53" transform="translate(-13.71 -7.93)"/><path class="cls-8" d="M50,29.28c.89,7.9,4.68,22.44,10.26,22.91,8.4.72,22.16-30.22,12.18-40.38-4.36-4.44-13.62-5.27-18.69-1.42C48.34,14.49,49.26,22.72,50,29.28Z" transform="translate(-13.71 -7.93)"/><path class="cls-8" d="M83.83,46.18c-6.71,4.1-20.36,9.88-24.13,5.66C54,45.5,69.81,15.58,83.81,17.45c6.12.82,12.4,7.78,12.48,14.21C96.38,38.52,89.39,42.79,83.83,46.18Z" transform="translate(-13.71 -7.93)"/><path class="cls-8" d="M55.11,79.77c-1.43-7.34-2.13-21.21,2.7-22.65C65.08,55,86,80.54,79.94,91.56c-2.63,4.82-10.63,7.25-16.21,4.67C57.77,93.49,56.29,85.85,55.11,79.77Z" transform="translate(-13.71 -7.93)"/><path class="cls-8" d="M83.51,56.18c-7.68-2.71-22.53-5.71-24.88-.84-3.52,7.32,20.67,33.58,33.55,29,5.63-2,9.55-10.06,7.68-16.38C97.87,61.23,89.87,58.42,83.51,56.18Z" transform="translate(-13.71 -7.93)"/><path class="cls-8" d="M39.49,71.1C46.27,68,57.93,60.41,56.27,55.65c-2.49-7.16-35.47-9.12-40.88,2.21-2.36,5,.35,12.86,5.7,15.88C26.8,77,33.87,73.7,39.49,71.1Z" transform="translate(-13.71 -7.93)"/><path class="cls-8" d="M42,34.26c6.69,4.65,17.81,14.93,15.24,19.68-3.88,7.15-39.33,2.89-43.16-10.22C12.41,38,16.64,30.09,22.86,27.91,29.49,25.57,36.45,30.41,42,34.26Z" transform="translate(-13.71 -7.93)"/><circle class="cls-8" cx="43.57" cy="46.2" r="6.28"/></svg>